<svg width="129" height="79" viewBox="0 0 129 79" fill="none" xmlns="http://www.w3.org/2000/svg">
<path id="Vector" d="M38.2876 28.7643C45.6129 28.8731 49.9809 28.2967 61.2933 23.7591C72.63 19.2117 84.8796 20.9174 88.1817 7.27908C91.4838 -6.35928 102.485 -6.13971 108.889 -1.97879C125.735 8.96629 103.596 21.6994 109.046 20.2393C121.418 16.924 131.156 33.5229 122.203 43.3804C111.753 51.9775 100.478 40.6622 93.7702 36.7897C82.5888 30.3341 51.8134 46.6838 42.5907 50.5031M24.4523 26.5403C12.4944 19.1974 4.84796 27.1101 3.2405 34.5762C-0.987825 54.2153 23.6892 47.6347 18.7954 50.4415C7.68404 56.8146 12.483 75.4507 25.782 76.1283C39.254 74.8565 39.2711 58.8827 41.297 51.4072" stroke="white" stroke-width="5" stroke-linecap="round"/>
</svg>
