<svg width="117" height="73" viewBox="0 0 117 73" fill="none" xmlns="http://www.w3.org/2000/svg">
<path id="Vector" d="M21.5273 24.7621C24.3271 23.8537 27.1831 22.9412 30.0772 22.0662M30.0772 22.0662C43.5086 18.0051 57.7576 14.7522 70.9944 16.4714C88.6232 18.7606 98.8922 21.6873 110.023 35.0551C116.753 43.1377 116.032 62.7134 103.439 67.6448C92.044 72.1066 77.3558 69.0304 69.8103 62.9283C56.0235 51.779 48.258 43.197 32.7995 25.4665C31.8943 24.3659 30.9805 23.2226 30.0772 22.0662ZM30.0772 22.0662C27.2024 18.3859 24.433 14.5717 22.378 11.5707C19.6773 7.62674 14.395 1.83458 8.88055 3.52108C4.87426 4.74634 5.11263 11.9001 4.20449 15.2893C3.46511 18.0488 1.09158 36.9451 4.01682 35.4555C7.93355 33.4609 11.3669 30.6282 14.9764 27.8223M98.9787 45.2982C99.087 44.8941 99.2522 44.9918 99.3931 45.3502M99.3931 45.3502C99.9062 46.6549 100.099 51.4142 96.0647 48.0047C91.8858 44.4731 101.72 43.5807 99.3931 45.3502ZM99.3931 45.3502C99.2877 45.4305 99.1572 45.5161 98.9993 45.6073M75.4334 40.1753C71.9127 40.1161 68.4331 41.793 65.0824 42.7272C64.0641 43.0112 63.6231 41.893 63.757 41.445C62.9345 28.3133 70.3092 25.7111 71.2501 26.2752C71.6153 26.4942 71.9153 26.734 72.2415 27.0233C75.4246 29.8459 78.482 33.1913 81.2009 36.4426" stroke="white" stroke-width="5" stroke-linecap="round"/>
</svg>
