<svg width="60" height="54" viewBox="0 0 60 54" fill="none" xmlns="http://www.w3.org/2000/svg">
<path id="Vector" d="M38.2663 2.98255C51.5078 6.06167 58.3457 14.8289 58.3457 28.8546C58.3457 39.8203 49.8187 48.7516 39.3516 50.8877C32.3915 52.3081 20.4693 52.4171 14.2795 48.4378C6.4306 43.3922 -0.19298 32.9644 2.12246 22.7765C5.13683 9.51323 17.3185 1.50319 28.7149 2.26291M19.7344 21.257C19.3403 22.0452 19.9457 21.0473 19.7343 21.8928M40.8711 21.257C40.8805 21.3345 40.8873 21.3928 40.8919 21.4358M40.8919 21.4358C40.9214 21.7067 40.8696 21.3727 40.8919 21.4358ZM40.8919 21.4358C40.9 21.4586 40.9178 21.5335 40.9528 21.7081M18.0782 33.4132C20.126 39.9706 37.9168 40.8837 42.3907 34.173" stroke="#F8DB46" stroke-width="3" stroke-linecap="round"/>
</svg>
