<svg width="62" height="54" viewBox="0 0 62 54" fill="none" xmlns="http://www.w3.org/2000/svg">
<path id="Vector" d="M12.0806 14.0521C22.965 13.3555 33.8717 13.8891 44.7623 13.8891C46.8155 13.8891 48.9325 13.7333 50.9456 14.043C56.5279 14.9019 58.1559 24.6128 59.4549 29.484C59.9359 34.294 59.2499 39.0538 58.1609 41.9176C57.239 44.3418 54.3768 47.8563 52.5751 49.658C51.0436 51.1895 50.8662 51.532 48.5103 51.532C45.5769 51.532 11.1628 53.0398 11.0938 51.8669C7.02645 48.7239 4.38202 43.1386 3.21739 39.1039C1.97247 34.7912 2.26247 30.052 3.21757 25.5948C5.10228 20.345 7.66191 17.7547 11.0938 13.9797M20.0132 27.0789C20.0132 30.0992 19.3008 33.0752 19.0662 36.079C18.9807 37.1735 19.2878 40.4604 19.2878 39.364M29.8433 26.7625C29.7266 30.6111 29.386 34.5502 29.5536 38.4047C29.5612 38.5805 29.6232 38.8127 29.6803 38.9841M40.9241 26.2737C41.0392 30.6141 41.25 34.967 41.25 39.3102M40.1085 11.6073C40.1085 9.6198 41.0736 4.35215 39.8188 3.09734C37.6293 0.90786 21.7128 1.51664 20.6262 3.22409C19.3765 5.18795 19.656 8.54358 20.0649 10.7925" stroke="#937AFF" stroke-width="3" stroke-linecap="round"/>
</svg>
