<svg width="54" height="56" viewBox="0 0 54 56" fill="none" xmlns="http://www.w3.org/2000/svg">
<path id="Vector" d="M45.8551 17.5818C46.4449 22.8574 48.6438 47.7715 50.9031 52.6376C51.773 54.5113 52.2596 54.6427 49.7288 54.2937C37.92 52.6649 23.8134 51.945 11.726 51.945C10.491 52.0711 7.14145 52.8496 5.9784 51.945C4.12352 51.2559 4.68457 47.9648 4.67832 47.1274C4.57171 32.8416 2.315 18.2523 4.67832 4.07242M31.0905 1.84138C21.903 1.84138 11.1742 0.541023 2.39526 3.46734M12.9328 11.3287C13.8017 11.3287 19.5142 11.1676 19.0964 11.9197C18.4752 13.038 20.1661 22.6427 19.1809 22.6427C18.5699 22.6427 12.2813 22.009 12.0978 21.3669C11.2638 18.4478 11.9196 15.8226 11.9196 12.8485M12.4274 29.7355C12.319 30.5485 11.8975 40.6005 12.934 40.5429C14.9918 40.4286 16.9455 40.5429 18.9287 40.5429C19.1212 40.5429 19.5038 40.6144 19.6699 40.5148C20.6622 39.9194 20.2836 30.5093 19.8481 28.985C19.5969 28.1056 13.284 28.3846 12.5962 28.3846M29.5159 51.711C28.9542 44.5407 28.7527 37.2933 28.5965 30.1108C28.5737 29.0617 28.3042 28.1175 29.5159 27.9155C31.598 27.5685 34.0296 27.5403 36.1111 27.5403C37.3254 27.5403 37.1249 28.0023 37.2931 29.0788C38.3841 36.0609 38.8974 44.0743 38.8974 51.1816M30.9412 2.0249C31.2931 3.42106 31.7046 4.8855 29.8442 5.00552C29.3596 5.03679 29.1228 5.17132 28.7328 5.43133C28.3062 5.71575 28.392 6.45753 28.6318 6.79534C29.3365 7.78839 30.3241 8.47283 31.2732 9.1986C31.6686 9.50093 28.302 11.166 28.8627 12.2875C29.1898 12.9416 29.7566 13.3498 30.2195 13.8969C30.5656 14.3059 30.1277 14.7765 29.9741 15.2464C29.6128 16.3523 29.3733 17.5878 30.1762 18.5663C31.3109 19.9492 31.9063 18.3496 32.2114 17.2239C32.5014 16.1542 32.3967 15.454 33.3806 16.1919C34.7256 17.2006 36.1316 18.1298 37.451 19.1725C38.9878 20.3871 40.2998 21.8089 41.5935 23.2718C42.5975 24.407 42.8535 25.882 43.5854 27.2267C43.8586 27.7286 44.1542 28.2143 44.5525 28.6268C44.6901 28.7693 44.8268 28.8659 44.8412 29.0742C44.8911 29.7988 45.0308 30.3689 45.368 31.0012C45.4591 31.172 46.064 32.0332 46.0103 32.0332" stroke="#3F96FC" stroke-width="3" stroke-linecap="round"/>
</svg>
