<svg width="68" height="34" viewBox="0 0 68 34" fill="none" xmlns="http://www.w3.org/2000/svg">
<path id="Vector" d="M21.9586 9.21298C25.7141 10.5265 28.0635 10.9794 34.6707 10.5834C41.2921 10.1866 47.3104 13.1682 51.3529 6.70835C55.3954 0.248531 61.0258 2.25017 63.611 5.49327C70.4113 14.0241 56.8192 16.784 59.8775 16.9671C66.8213 17.383 68.9886 27.6064 62.6838 31.1483C55.8241 33.7838 51.9574 26.0185 49.1664 22.8719C44.5138 17.6265 25.8512 20.7672 20.444 21.1518M15.2139 5.69249C10.3136 -0.143378 5.01569 2.62075 2.90588 6.19143C-2.64387 15.5839 11.1997 16.4296 8.19652 17.0357C1.37779 18.4117 0.651178 28.8371 7.38671 31.4691C14.546 33.1265 17.2968 24.8995 19.6239 21.3958" stroke="white" stroke-width="3" stroke-linecap="round"/>
</svg>
