<svg width="66" height="58" viewBox="0 0 66 58" fill="none" xmlns="http://www.w3.org/2000/svg">
<path id="Vector" d="M33.7359 3.42762C22 10.4744 11 17.4743 1.5 28.4744C2.5 29.3496 5.03742 32.9465 7.5 33.4744C13.5 29.4744 32.4534 14.6966 33.0222 15.692C37 16.9744 50.587 30.3005 59 34.9744C60.5823 35.8534 62.5 32.8496 64.5 29.4744C44.5 10.3491 38.5 5.97437 34.2117 2.47607M54.2193 31.6184C54.5 45.4744 55 47.9744 55.3125 55.493C48.7254 55.6759 23 54.9744 10.1197 55.493C8.66387 48.7599 10.3769 40.6346 10.3769 33.7888M47.7404 11.9749C47.7403 9.9749 47.7409 7.47489 47.7402 5.50921C50.501 5.50916 55.001 4.50702 57.692 4.47485V17.4384M29.4746 47.8243L29.5756 47.7814C35.114 45.4257 44.5067 41.4307 44.5067 34.2793C43.999 30.9744 41.7121 30.511 39.9248 30.2038C35.9285 29.5169 32.2238 32.623 32.2238 36.5382M29.5 47.9744C27.1603 46.8045 24.5288 43.701 23 41.4744C21.7822 39.7011 21.2618 36.7324 21.4995 34.4743C23.5 27.9744 29.4997 33.4743 31.4997 35.9743" stroke="#FF3D9A" stroke-width="3" stroke-linecap="round" stroke-linejoin="round"/>
</svg>
