<svg width="52" height="52" viewBox="0 0 52 52" fill="none" xmlns="http://www.w3.org/2000/svg">
<path id="Vector" d="M38.5949 16.0471C42.0128 16.0471 45.6554 15.6888 49.062 16.0471C51.3257 16.2853 50.2393 31.16 50.2393 33.1897C50.2393 35.158 50.3112 35.199 48.3037 34.7735C44.438 33.954 39.5539 35.0457 35.6183 34.7735C36.0965 39.0741 35.6966 44.0305 36.9267 48.1791C38.0396 51.9325 26.3637 50.0053 24.1045 50.0053C20.9827 50.0053 20.3121 49.1462 17.2027 49.1462V35.5936C12.899 36.0714 8.00872 35.2796 3.85715 36.5088C0.101061 37.6209 1.95999 26.3456 1.95999 24.088C1.95999 20.9684 1.95999 20.3403 1.95999 17.2332H16.0579C16.0579 13.8177 15.6993 6.34115 16.0579 2.937C16.2962 0.674883 33.1946 1.76029 35.2258 1.76029C37.1954 1.76029 36.9267 2.33141 36.9267 3.98296C36.9267 7.07902 37.9309 12.1143 37.6585 16.0471" stroke="#41CC4F" stroke-width="3" stroke-linecap="round" stroke-linejoin="round"/>
</svg>
