<svg width="199" height="153" viewBox="0 0 199 153" fill="none" xmlns="http://www.w3.org/2000/svg">
<g id="Collar_Drawing">
<path fill-rule="evenodd" clip-rule="evenodd" d="M176.226 3.78869C176.226 3.78836 176.226 3.78875 176.226 3.78869C176.229 3.81236 176.233 3.83593 176.237 3.85939C176.229 3.818 176.226 3.79275 176.226 3.78869ZM180.22 6.18484C180.193 6.23339 180.169 6.27672 180.15 6.3127C177.356 11.4351 173.563 16.0621 169.95 20.2022C157.332 34.6608 142.239 45.9526 124.643 53.7276C104.195 62.7625 80.519 63.8097 59.1823 63.8097C48.5692 63.8097 20.1815 61.9611 9.64853 60.4705C8.00801 60.2384 6.8663 58.7203 7.09845 57.0798C7.3306 55.4393 8.84869 54.2976 10.4892 54.5297C20.7143 55.9767 48.8191 57.8097 59.1823 57.8097C80.5056 57.8097 103.036 56.7149 122.218 48.2395C138.983 40.8314 153.368 30.0772 165.43 16.257C168.997 12.1696 172.42 7.95327 174.882 3.43959C174.886 3.43285 174.891 3.42385 174.897 3.41274C175.003 3.21754 175.461 2.37186 175.966 1.70448C176.108 1.51618 176.302 1.27749 176.537 1.04749C176.721 0.867852 177.174 0.446277 177.854 0.197859C178.231 0.0600722 178.795 -0.066971 179.463 0.0397625C180.173 0.153191 180.773 0.495325 181.215 0.943207C181.967 1.70602 182.12 2.61832 182.166 2.94016C182.37 4.3717 181.528 5.71137 180.22 6.18484Z" fill="#F5F5F5"/>
<path fill-rule="evenodd" clip-rule="evenodd" d="M107.93 129.393C109.217 130.254 110.494 131.139 111.766 132.051C113.113 133.016 114.987 132.707 115.952 131.361C116.918 130.014 116.609 128.14 115.262 127.175C109.271 122.879 103.152 119.146 96.5718 115.805C94.2372 114.619 91.9954 113.791 89.1301 113.511C88.5221 113.452 87.8783 113.44 87.2528 113.542C86.6491 113.641 85.7987 113.891 85.0771 114.579C83.2921 116.279 84.1358 118.442 84.4273 119.047C84.8209 119.864 85.4228 120.578 85.891 121.075C86.3952 121.611 86.9419 122.099 87.4069 122.466C87.7382 122.728 88.0722 122.985 88.4082 123.237C87.2924 122.841 86.1535 122.506 84.9947 122.247C82.9572 121.791 79.7957 121.765 77.6864 124.477C77.1308 125.191 76.8221 126.049 76.8142 126.959C76.8068 127.814 77.0653 128.536 77.338 129.067C77.8535 130.069 78.6708 130.865 79.2813 131.396C79.9413 131.97 80.6529 132.479 81.1973 132.857C81.3361 132.953 81.4688 133.045 81.5881 133.126C81.7101 133.21 81.8147 133.282 81.9094 133.348C82.1243 133.497 82.1911 133.55 82.1906 133.549C84.0891 135.131 85.9382 136.739 87.7186 138.406C88.3196 138.969 88.8576 139.446 89.3789 139.908C89.9433 140.408 90.4883 140.891 91.0726 141.447C89.7062 140.99 88.3265 140.394 86.8348 139.725C86.6409 139.638 86.4445 139.55 86.2458 139.46C84.1543 138.518 81.8071 137.462 79.2884 136.788C79.2796 136.785 79.2382 136.771 79.1467 136.739C79.1146 136.728 79.0593 136.708 78.9942 136.685C78.8842 136.646 78.7461 136.597 78.6447 136.562C78.263 136.429 77.7171 136.245 77.1809 136.114C76.9141 136.049 76.5758 135.979 76.216 135.946C75.9294 135.919 75.2785 135.877 74.5678 136.124C74.1732 136.261 73.6445 136.528 73.1882 137.045C72.7053 137.593 72.4595 138.245 72.4014 138.873C72.3022 139.944 72.756 140.767 72.9423 141.082C73.8509 142.62 74.6601 144.113 75.3713 145.678C76.0569 147.186 77.8354 147.853 79.3438 147.167C80.6788 146.561 81.3547 145.098 81.017 143.724C81.9314 144.1 82.8648 144.519 83.8521 144.963C84.0266 145.041 84.2027 145.12 84.3806 145.2C86.6991 146.239 89.3155 147.378 92.2156 147.958C92.6205 148.039 93.2034 148.071 93.6682 148.08C94.2054 148.091 94.9046 148.078 95.6021 147.99C96.1816 147.917 97.2353 147.744 98.1384 147.154C98.641 146.826 99.3238 146.22 99.65 145.218C99.9916 144.17 99.7775 143.201 99.4478 142.507C98.5209 140.559 97.0613 138.913 95.7024 137.578C94.924 136.813 93.9574 135.95 93.1186 135.201C92.6175 134.754 92.162 134.347 91.8196 134.026C89.9326 132.26 87.9922 130.574 86.0317 128.94C85.9049 128.834 85.7646 128.728 85.6309 128.631C89.6694 129.918 93.6021 132.316 97.2665 135.005C97.5266 135.196 100.86 137.639 103.938 139.465C105.37 140.314 107.145 141.277 108.581 141.607C108.971 141.697 109.523 141.787 110.135 141.727C110.761 141.667 111.717 141.416 112.47 140.56C113.229 139.698 113.362 138.701 113.334 138.032C113.306 137.384 113.126 136.802 112.953 136.358C111.917 133.71 109.955 131.261 107.93 129.393Z" fill="#F1D06E"/>
<path fill-rule="evenodd" clip-rule="evenodd" d="M178.78 2.02286C179.521 0.540922 181.323 -0.0597511 182.805 0.681217C190.266 4.41164 196.557 12.3844 196.557 21.5051C196.557 23.1491 196.34 24.7384 196.156 26.0895L196.152 26.1222C195.957 27.5515 195.801 28.711 195.801 29.8195C195.801 30.1185 195.796 30.4067 195.785 30.6854C197.228 31.0382 198.219 32.415 198.051 33.9302C197.79 36.2712 196.259 38.3715 195.084 39.7899C194.438 40.5702 193.754 41.3083 193.15 41.9501C192.997 42.1121 192.852 42.2653 192.714 42.411C192.28 42.87 191.916 43.2543 191.607 43.6042C191.303 43.9498 190.999 44.2927 190.697 44.6334C188.249 47.3994 185.923 50.0279 183.917 52.8781C179.315 59.418 171.631 65.845 164.693 69.5457C161.528 71.2335 158.596 73.0065 155.603 74.8166C153.764 75.9291 151.901 77.0555 149.947 78.1848C144.941 81.0779 139.633 83.7978 133.567 85.6048C120.678 89.4442 107.865 92.9191 94.2714 94.5547C95.697 97.8707 96.7837 101.424 96.7837 105.405C96.7837 105.991 96.6159 106.537 96.3258 106.999C96.327 106.999 96.3283 106.999 96.3295 107C98.7819 107.111 101.214 107.655 103.44 108.769C104.292 109.194 104.853 109.971 105.035 110.836C109.918 114.32 113.273 119.606 116.033 126.161C118.832 132.808 115.562 139.536 111.239 144.113C106.899 148.707 100.518 152.245 94.9179 152.245C94.2544 152.245 93.5771 152.252 92.889 152.26C86.469 152.332 79.1055 152.414 73.1443 146.453C69.8113 143.12 68.7714 139.078 68.7491 135.191C68.7274 131.411 69.6693 127.557 70.4655 124.372C71.7693 119.157 75.7001 114.751 80.2986 111.741C81.919 110.68 83.6719 109.759 85.4977 109.017C85.5559 107.961 86.1597 107.051 87.0319 106.564C86.9283 105.8 87.1259 105.026 87.57 104.408C87.4756 103.851 87.2239 103.04 86.8187 102.113C86.3846 101.12 85.8597 100.187 85.3978 99.5406C85.2524 99.3369 85.1344 99.1916 85.0489 99.0949C83.8625 98.5894 83.0949 97.3511 83.2446 96.0034C83.2628 95.8394 83.294 95.6799 83.3369 95.5259C70.4668 96.3622 56.8795 96.2591 44.3025 94.7794C39.8546 94.2562 35.437 93.9274 30.9445 93.593C28.5683 93.4162 26.1712 93.2377 23.7375 93.0282C16.7948 92.4303 9.73785 91.5883 2.7536 89.7924C1.14895 89.3797 0.182621 87.7444 0.595246 86.1398C1.00787 84.5351 2.6432 83.5688 4.24785 83.9814C10.7489 85.6531 17.4162 86.4616 24.2523 87.0503C26.536 87.2469 28.8609 87.4203 31.2052 87.5951C35.7843 87.9364 40.4377 88.2834 45.0035 88.8205C59.4455 90.5196 75.3904 90.3485 89.9765 88.981C95.3843 88.4741 100.668 87.6471 105.902 86.5908C105.901 86.5636 105.901 86.5363 105.901 86.509C105.901 84.9332 105.849 83.3721 105.746 81.8222C105.737 81.8816 105.728 81.9409 105.718 81.9999C105.63 82.5256 105.46 83.2292 105.068 83.9031C104.636 84.644 103.899 85.3946 102.78 85.7232C101.745 86.0273 100.787 85.8485 100.096 85.6144C99.138 85.2901 98.1454 84.6686 97.129 83.8858C97.0849 84.3113 96.9759 84.7553 96.7733 85.2029C96.1163 86.6545 94.8336 87.3738 93.7133 87.7057C92.4746 88.0728 91.2729 88.1806 90.0992 87.9886C88.9289 87.7972 87.9661 87.3367 87.1719 86.8202C86.4138 86.3271 85.7443 85.7365 85.2167 85.2672C85.1642 85.2205 85.1127 85.1746 85.062 85.1294C84.5591 84.6815 84.1374 84.3059 83.6649 83.9498C83.0849 83.5127 82.5006 83.0939 81.911 82.6879C81.7389 83.4404 81.3629 84.1312 80.7929 84.6932C80.0813 85.3948 79.243 85.7242 78.6104 85.8921C77.9598 86.0649 77.3047 86.1251 76.7394 86.1417C75.6175 86.1747 74.4313 86.043 73.5493 85.9322C73.3069 85.9017 73.1117 85.876 72.9342 85.8527C72.7357 85.8265 72.5594 85.8033 72.3641 85.7797C72.2033 85.7602 72.0785 85.7467 71.9818 85.7382C71.8961 85.7308 71.8604 85.7298 71.8604 85.7297C71.8604 85.7297 71.862 85.7297 71.865 85.7297C71.8267 85.7297 71.7885 85.729 71.7506 85.7276C71.6232 86.2373 71.3602 86.7201 70.9617 87.1186C69.7901 88.2902 67.8906 88.2902 66.719 87.1186C65.3951 85.7947 64.8069 83.9892 64.4711 82.7221C64.2892 82.0356 64.1433 81.3425 64.0196 80.7531L64.0179 80.7452C63.888 80.1262 63.7855 79.6382 63.6737 79.218C63.1623 77.2964 62.6089 75.3081 62.0502 73.3004C61.3108 70.6435 60.5619 67.9527 59.8883 65.3374C59.475 63.7329 60.4407 62.0972 62.0452 61.6839C63.6497 61.2707 65.2854 62.2363 65.6987 63.8408C66.3763 66.4718 67.0811 69.0011 67.7948 71.5623C68.3513 73.5594 68.9132 75.5759 69.4719 77.675C69.6257 78.2531 69.7573 78.8804 69.8732 79.4331L69.8916 79.5204C69.9508 79.8024 70.0075 80.0711 70.065 80.3295C70.5664 79.9529 71.1896 79.7297 71.865 79.7297C72.2804 79.7297 72.7432 79.7817 73.0864 79.8233C73.277 79.8464 73.526 79.8789 73.7715 79.911C73.9577 79.9354 74.1419 79.9594 74.2972 79.979C74.3026 79.9796 74.3081 79.9803 74.3135 79.981C73.9788 79.6304 73.6362 79.2763 73.2896 78.9181C72.9123 78.5281 72.5303 78.1333 72.1488 77.7329C71.7237 77.2869 71.3116 76.8464 70.9723 76.4601C70.6982 76.1481 70.2673 75.6474 69.9909 75.1505C69.9134 75.0111 69.7723 74.7406 69.6736 74.3874C69.6023 74.1324 69.3704 73.2202 69.8591 72.2055C70.4795 70.9173 71.6765 70.55 72.344 70.4898C72.924 70.4374 73.3846 70.562 73.5635 70.6143C74.2264 70.8079 74.9276 71.2431 75.4072 71.5483C76.5337 72.2652 77.733 72.991 78.9654 73.7369C81.6442 75.3581 84.4788 77.0737 87.0598 78.9961C86.6037 78.5823 86.148 78.1808 85.7111 77.8018C85.3885 77.5219 85.0524 77.2347 84.7282 76.9576C84.0032 76.338 83.3373 75.7689 83.0132 75.4448C82.3961 74.8277 81.7916 74.2138 81.1942 73.6071C79.4001 71.7851 77.6701 70.0283 75.8558 68.4455C75.5553 68.1834 75.3298 67.9859 75.1713 67.8453C75.0892 67.7724 74.8533 67.5667 74.6922 67.3897C74.6624 67.357 74.5683 67.2534 74.4652 67.1096C74.4181 67.0439 74.307 66.8848 74.2 66.6631C74.1988 66.6606 74.1972 66.6574 74.1953 66.6535C74.1391 66.5394 73.7851 65.821 73.9408 64.8716C74.044 64.2428 74.3706 63.5419 75.0228 63.018C75.6183 62.5397 76.2382 62.4083 76.6022 62.3717C77.2332 62.3083 77.7191 62.4672 77.8252 62.502L77.8322 62.5042C78.1198 62.5978 78.3323 62.7177 78.3739 62.7412L78.378 62.7435C78.5023 62.8132 78.6003 62.8801 78.6265 62.8979L78.6285 62.8993C78.6704 62.9279 78.7082 62.9548 78.7355 62.9745C78.8212 63.0362 78.9393 63.1247 79.045 63.2039L79.0872 63.2355C79.354 63.4353 79.6674 63.6685 79.9477 63.8605C80.0364 63.9213 80.1086 63.9688 80.1643 64.004C84.3201 65.2504 87.9325 67.7906 91.0781 70.4364C92.6951 71.7965 94.2471 73.2361 95.7103 74.5994L95.9462 74.8194C97.3169 76.0968 98.6019 77.2945 99.866 78.3761C99.8607 77.9626 99.8552 77.5131 99.8552 77.0608C99.8552 73.4539 97.8214 69.8449 94.687 66.7104C93.5154 65.5389 93.5154 63.6394 94.687 62.4678C95.8586 61.2962 97.7581 61.2962 98.9296 62.4678C100.696 64.2338 102.357 66.31 103.609 68.636C103.211 67.0895 102.763 65.5439 102.266 63.9954C101.759 62.418 102.626 60.7283 104.204 60.2213C105.781 59.7143 107.471 60.582 107.978 62.1594C110.416 69.7442 111.765 77.3372 111.891 85.2824C118.532 83.7277 125.136 81.8558 131.854 79.8545C137.265 78.2428 142.104 75.7875 146.945 72.99C148.676 71.9896 150.451 70.9171 152.261 69.8238C155.38 67.9403 158.6 65.9952 161.869 64.2516C168.087 60.9354 175.015 55.1023 179.01 49.4251C181.222 46.2821 183.782 43.3918 186.203 40.6579C186.507 40.3144 186.809 39.9733 187.108 39.6345C187.32 39.3949 187.555 39.1388 187.799 38.8777C186.63 37.8541 186.43 36.086 187.378 34.8223C187.85 34.1929 188.281 33.6743 188.614 33.2739C188.68 33.1949 188.742 33.1204 188.8 33.0506C189.175 32.5961 189.343 32.3688 189.456 32.1739C189.584 31.9514 189.801 31.5339 189.801 29.8195C189.801 28.281 190.01 26.7556 190.189 25.4423L190.207 25.3115C190.399 23.898 190.557 22.6917 190.557 21.5051C190.557 15.1395 186.021 8.99719 180.122 6.04778C178.64 5.30681 178.039 3.50479 178.78 2.02286ZM80.2879 64.0773C80.2868 64.077 80.2771 64.0721 80.258 64.0611C80.2788 64.0715 80.2892 64.0776 80.2879 64.0773ZM77.07 80.0932C77.0838 80.0887 77.0842 80.0895 77.07 80.0932C77.0697 80.0933 77.0703 80.0932 77.07 80.0932ZM75.2342 67.847C75.2323 67.8456 75.2304 67.8442 75.2287 67.8429C75.2144 67.8327 75.2082 67.8284 75.2086 67.8289C75.2091 67.8294 75.2183 67.836 75.2342 67.847ZM84.9287 98.969C84.9301 98.9704 84.9316 98.9718 84.9331 98.9732C84.8675 98.925 84.8646 98.9098 84.9287 98.969ZM95.53 112.979C91.6486 112.939 87.2717 114.347 83.5848 116.761C79.7764 119.254 77.1066 122.546 76.2864 125.827C75.4666 129.106 74.7323 132.247 74.749 135.157C74.7651 137.96 75.4781 140.302 77.3869 142.21C81.4812 146.305 86.2426 146.282 93.0291 146.251C93.6419 146.248 94.2711 146.245 94.9179 146.245C98.3263 146.245 103.236 143.847 106.877 139.993C110.535 136.121 111.935 131.89 110.504 128.489C106.783 119.653 102.533 114.769 95.53 112.979Z" fill="#F5F5F5"/>
</g>
</svg>
