<svg width="161" height="248" viewBox="0 0 161 248" fill="none" xmlns="http://www.w3.org/2000/svg">
<g id="House_Drawing">
<path d="M65.7065 104.554C78.102 99.2822 99.1238 90.341 99.1238 74.3355C97.9875 66.9386 92.8691 65.9015 88.8689 65.214C79.9249 63.6768 71.6334 70.6286 71.6334 79.391C67.1572 73.7958 52.103 60.2243 47.6257 74.7717C47.0937 79.8256 48.2583 86.4699 50.9839 90.4386C54.4055 95.4221 60.244 102.032 65.4805 104.65L65.7065 104.554Z" fill="#FF3D9A"/>
<path fill-rule="evenodd" clip-rule="evenodd" d="M74.3873 1.10374C75.4346 -0.180112 77.3244 -0.371851 78.6083 0.675477C79.7909 1.64025 81.0322 2.63525 82.383 3.71813C87.3056 7.6641 93.6839 12.777 103.987 21.8463C103.987 20.8936 103.987 19.9127 103.987 18.9216C103.987 15.7881 103.987 12.5532 103.986 9.78949C103.986 8.99369 104.302 8.23039 104.865 7.66758C105.427 7.10477 106.191 6.78857 106.986 6.78855C109.82 6.7885 113.652 6.26666 117.763 5.68737C117.917 5.66567 118.071 5.64388 118.226 5.62204C122.052 5.08225 126.1 4.51113 129.223 4.47379C130.025 4.4642 130.798 4.77601 131.368 5.33961C131.938 5.90322 132.259 6.67171 132.259 7.47357V36.4873C132.259 38.1442 130.916 39.4873 129.259 39.4873C127.602 39.4873 126.259 38.1442 126.259 36.4873V10.6535C124.048 10.8608 121.494 11.2208 118.793 11.6015L118.6 11.6287C115.736 12.0322 112.707 12.4562 109.987 12.6618C109.987 14.6798 109.987 16.8244 109.987 18.9229C109.987 20.7773 109.987 22.5958 109.987 24.2592C109.987 25.0911 109.648 25.8439 109.101 26.3874C118.395 34.7056 130.461 45.8489 146.573 61.2567C147.582 62.2212 147.792 63.7537 147.081 64.9543C144.87 68.6853 142.543 72.5004 140.256 75.1223C139.121 76.4231 137.797 77.6692 136.29 78.4015C134.65 79.1987 132.66 79.4269 130.734 78.3568C128.802 77.2836 126.758 76.0169 124.636 74.6047C125.035 90.4034 125.572 98.5747 126.078 106.294C126.387 111 126.685 115.537 126.934 121.532C126.968 122.334 126.678 123.116 126.131 123.703C125.583 124.29 124.823 124.633 124.02 124.656C118.3 124.815 106.244 124.679 91.9988 124.519C87.6992 124.471 83.2003 124.42 78.6162 124.375C58.7615 124.179 37.2372 124.078 22.9118 124.654C21.455 124.713 20.167 123.716 19.8589 122.291C18.1361 114.323 18.3094 105.657 18.8637 97.2658C19.0416 94.5712 19.2566 91.9223 19.4676 89.3222C19.9092 83.8811 20.3334 78.6539 20.3649 73.6694C19.7302 74.1072 19.1379 74.5099 18.5927 74.8734C17.9188 75.3227 17.0918 75.4804 16.2998 75.3106C12.5939 74.5162 9.24741 71.5934 6.85814 69.1874C5.60535 67.9259 4.46778 66.6477 3.54324 65.6089L3.52639 65.5899C2.52796 64.4681 1.90634 63.7786 1.52426 63.4442C0.28329 62.3581 0.151668 60.474 1.22957 59.2259C22.7263 34.3348 47.5762 18.4942 73.7191 2.78816C73.7609 2.19186 73.9807 1.60214 74.3873 1.10374ZM77.4979 7.49113C77.4014 7.56661 77.2992 7.63702 77.1914 7.70172C51.6892 23.0143 28.0735 38.0425 7.56376 61.1016C7.6728 61.2238 7.78159 61.3461 7.88964 61.4675C7.92934 61.5122 7.96894 61.5567 8.00842 61.601C8.94737 62.6561 9.98744 63.8237 11.1155 64.9595C13.0393 66.8968 14.8729 68.3722 16.4572 69.0748C21.3066 65.7574 29.0209 60.0606 37.2288 53.9992C40.8829 51.3007 44.6348 48.5299 48.2754 45.8647C54.4969 41.31 60.3828 37.072 64.8052 34.1067C67.0033 32.6328 68.9136 31.4232 70.3516 30.6442C71.0453 30.2683 71.7747 29.9117 72.4371 29.7011C72.7435 29.6037 73.2687 29.4593 73.8753 29.4721C74.2192 29.4793 74.8342 29.5533 75.4455 29.8894C76.8301 30.4088 78.3751 31.285 79.959 32.3076C81.7748 33.4799 83.8376 34.975 86.0649 36.6786C90.2338 39.8673 95.1254 43.9 100.26 48.1333C100.608 48.4196 100.956 48.7069 101.306 48.995C108.066 54.5667 115.166 60.386 121.742 65.2337C122.872 65.3275 123.829 66.0497 124.254 67.0555C127.56 69.4099 130.697 71.4656 133.548 73.0568C133.579 73.0452 133.619 73.0287 133.667 73.0052C134.101 72.7943 134.793 72.2564 135.734 71.1782C137.256 69.4329 138.908 66.8952 140.696 63.94C102.811 27.7792 88.0189 15.9238 78.5821 8.36036C78.2128 8.06445 77.8518 7.7751 77.4979 7.49113ZM118.534 70.3205C111.613 65.2424 104.256 59.2017 97.4897 53.6251C97.1505 53.3455 96.8126 53.0669 96.4763 52.7897C91.3072 48.5284 86.4973 44.5633 82.4196 41.4444C80.2499 39.7848 78.3293 38.3973 76.7046 37.3483C75.4222 36.5204 74.4304 35.974 73.7111 35.6589C73.5718 35.7278 73.4054 35.8137 73.2097 35.9197C72.0317 36.5579 70.3143 37.6366 68.1467 39.0901C63.8377 41.9793 58.0408 46.1516 51.8197 50.706C48.2715 53.3036 44.5816 56.0285 40.9632 58.7007C35.1129 63.021 29.4494 67.2034 24.8739 70.4864C25.7667 71.0062 26.3668 71.9735 26.3668 73.081C26.3668 78.491 25.8944 84.3212 25.4258 90.1042C25.2198 92.6456 25.0147 95.1778 24.8506 97.6612C24.3649 105.016 24.2196 112.104 25.2613 118.565C39.6778 118.088 59.9984 118.191 78.6756 118.375C83.3266 118.421 87.8721 118.472 92.2004 118.521C104.189 118.655 114.513 118.771 120.802 118.711C120.592 114.37 120.352 110.696 120.102 106.881C119.546 98.3741 118.943 89.17 118.534 70.3205ZM74.255 35.4191C74.2787 35.4116 74.2752 35.4142 74.2481 35.4213C74.2505 35.4205 74.2528 35.4198 74.255 35.4191ZM71.7461 34.5003C71.6392 34.3731 71.5379 34.2294 71.4451 34.0671C71.5331 34.221 71.6339 34.3659 71.7461 34.5003ZM88.9955 68.0141C81.8301 66.7826 75.2682 72.3869 75.2682 79.2345C75.2682 80.8913 73.9251 82.2345 72.2682 82.2345C71.1975 82.2345 70.2579 81.6736 69.727 80.8296C69.1831 80.656 68.6826 80.3255 68.2992 79.8462C66.1767 77.1932 62.0682 73.1594 58.2491 71.4885C56.3644 70.664 55.043 70.6266 54.1567 70.9906C53.3642 71.316 52.1752 72.2737 51.2157 75.2196C50.8113 79.7381 51.9263 85.4304 54.0917 88.5835C55.7264 90.9645 57.9562 93.82 60.386 96.3754C62.3028 98.3912 64.2369 100.106 66.015 101.276C72.1309 98.6703 79.7468 95.3376 85.9464 90.878C92.4028 86.2337 96.6579 80.8513 96.7569 74.4088C96.2804 71.6131 95.1628 70.3397 94.0512 69.6051C92.7225 68.7271 91.0436 68.3661 88.9955 68.0141ZM68.47 106.752C74.5382 104.167 82.6912 100.611 89.4501 95.7487C96.5269 90.6581 102.759 83.6399 102.759 74.179V73.9499L102.724 73.7234C102.041 69.2801 100.061 66.3849 97.359 64.5993C94.8445 62.9377 91.964 62.4364 90.0119 62.1008C81.4305 60.6259 73.2983 65.6471 70.3928 73.1845C67.825 70.5514 64.3131 67.5925 60.654 65.9916C58.0626 64.8578 54.9078 64.1958 51.8773 65.4404C48.7773 66.7135 46.658 69.6229 45.3932 73.7324L45.3075 74.011L45.277 74.3009C44.6933 79.8461 45.9067 87.2638 49.1457 91.9802C50.9326 94.5826 53.3585 97.692 56.0379 100.51C58.6786 103.287 61.7443 105.972 64.8248 107.513C66.0944 108.148 67.599 107.798 68.47 106.752ZM126.132 179.286C122.565 177.274 118.163 176.842 113.504 177.046C108.601 177.261 103.966 177.889 100.206 179.974C98.3882 180.982 95.4122 182.684 93.36 184.673C92.3283 185.673 91.7769 186.515 91.5815 187.137C91.4438 187.575 91.4461 187.942 91.8487 188.498C94.2931 191.87 98.6343 193.184 104.011 192.98C109.325 192.779 114.923 191.095 118.727 189.4C120.241 188.725 122.014 189.405 122.689 190.919C123.363 192.432 122.683 194.205 121.17 194.88C116.865 196.798 110.507 198.739 104.238 198.976C98.032 199.211 91.1633 197.776 86.9905 192.019C85.4319 189.868 85.1727 187.517 85.8576 185.338C86.4849 183.342 87.8403 181.667 89.1844 180.365C91.8836 177.749 95.5343 175.703 97.2958 174.727C102.341 171.929 108.168 171.275 113.241 171.052C118.274 170.831 124.043 171.219 129.08 174.061C131.826 175.61 132.675 178.349 132.47 180.665C132.28 182.812 131.158 185.101 129.241 186.349C127.852 187.253 125.994 186.86 125.09 185.471C124.186 184.083 124.579 182.224 125.968 181.321C125.962 181.324 125.995 181.303 126.051 181.239C126.107 181.176 126.174 181.084 126.24 180.964C126.376 180.714 126.468 180.417 126.493 180.136C126.518 179.857 126.472 179.672 126.426 179.572C126.392 179.499 126.331 179.399 126.132 179.286ZM149.476 230.402C144.709 229.367 138.25 230.101 134.143 235.074L134.105 235.119L134.066 235.163C133.615 235.667 133.505 236.083 133.5 236.414C133.495 236.78 133.622 237.32 134.097 238.001C135.061 239.382 137.224 240.968 140.633 241.907C143.104 242.147 146.197 241.915 149.087 241.297C152.149 240.643 154.495 239.661 155.607 238.756C156.892 237.711 158.782 237.905 159.827 239.19C160.873 240.475 160.679 242.365 159.393 243.411C157.172 245.217 153.705 246.446 150.34 247.165C146.889 247.902 143.039 248.211 139.755 247.848L139.535 247.824L139.32 247.767C134.886 246.599 131.217 244.358 129.177 241.434C128.141 239.949 127.475 238.205 127.501 236.333C127.526 234.445 128.252 232.684 129.552 231.211C135.596 223.932 144.706 223.226 150.749 224.539C152.3 224.876 153.737 225.36 154.96 225.957C156.135 226.53 157.32 227.309 158.147 228.344C159.01 229.425 159.769 231.253 158.783 233.191C157.968 234.79 156.349 235.584 155.009 236.017C153.433 236.527 151.742 235.662 151.232 234.086C150.888 233.024 151.168 231.91 151.869 231.141C151.211 230.863 150.403 230.604 149.476 230.402Z" fill="#1E1F27"/>
</g>
</svg>
