<svg width="30" height="27" viewBox="0 0 30 27" fill="none" xmlns="http://www.w3.org/2000/svg">
<g id="Shape">
<path d="M18.8489 3.53948C18.9124 3.49692 18.9777 3.45619 19.0448 3.41743C19.9012 2.92302 20.8832 2.84953 21.7917 2.97699C22.706 3.10527 23.6414 3.44825 24.5138 3.9093C26.2431 4.82321 27.934 6.31394 28.9007 7.98824C29.9105 9.73733 29.9678 11.4195 29.3123 12.8759C28.6899 14.2588 27.4971 15.2807 26.2948 15.9748C25.8913 16.2077 25.4564 16.4213 24.9996 16.5965C24.9968 15.7497 24.905 14.8689 24.7362 13.9783C24.8389 13.9254 24.9418 13.8692 25.0448 13.8097C25.9949 13.2612 26.7046 12.5784 27.0325 11.8499C27.3273 11.1949 27.3826 10.3589 26.7356 9.23824C26.0454 8.0428 24.7383 6.85556 23.3457 6.11961C22.6572 5.75572 22.0007 5.53079 21.4443 5.45274C21.1737 5.41477 20.9482 5.41401 20.7626 5.43759C20.1614 4.70922 19.5185 4.06633 18.8489 3.53948Z" fill="#1E1F27"/>
<path d="M11.1507 3.53925C11.0873 3.49678 11.0221 3.45612 10.9551 3.41743C10.0987 2.92302 9.11668 2.84953 8.20823 2.97699C7.29386 3.10527 6.35846 3.44825 5.48608 3.9093C3.75678 4.82321 2.06591 6.31394 1.09925 7.98824C0.0894172 9.73733 0.032113 11.4195 0.687627 12.8759C1.31003 14.2588 2.50285 15.2807 3.70509 15.9748C4.10839 16.2076 4.54309 16.4211 4.9997 16.5963C5.00251 15.7494 5.09433 14.8686 5.26314 13.978C5.16063 13.9252 5.05788 13.8691 4.95509 13.8097C4.00501 13.2612 3.29526 12.5784 2.96737 11.8499C2.67259 11.1949 2.61729 10.3589 3.26431 9.23824C3.95451 8.0428 5.26164 6.85556 6.6542 6.11961C7.34275 5.75572 7.99925 5.53079 8.55558 5.45274C8.82593 5.41481 9.05124 5.41401 9.23676 5.43752C9.83797 4.70907 10.481 4.06613 11.1507 3.53925Z" fill="#1E1F27"/>
<path d="M14.1996 18.9333C14.5996 19.4667 15.3996 19.4667 15.7996 18.9333L16.7996 17.6C17.2941 16.9408 16.8237 16 15.9996 16H13.9996C13.1756 16 12.7052 16.9408 13.1996 17.6L14.1996 18.9333Z" fill="#F5F5F5"/>
<path d="M13.0001 11.5C13.0001 12.3284 12.3285 13 11.5001 13C10.6717 13 10.0001 12.3284 10.0001 11.5C10.0001 10.6716 10.6717 10 11.5001 10C12.3285 10 13.0001 10.6716 13.0001 11.5Z" fill="#1E1F27"/>
<path d="M20.0001 11.5C20.0001 12.3284 19.3285 13 18.5001 13C17.6717 13 17.0001 12.3284 17.0001 11.5C17.0001 10.6716 17.6717 10 18.5001 10C19.3285 10 20.0001 10.6716 20.0001 11.5Z" fill="#1E1F27"/>
<path fill-rule="evenodd" clip-rule="evenodd" d="M15.0001 0.75C13.4058 0.75 11.9023 1.41221 10.5917 2.393C9.27745 3.37655 8.08867 4.72923 7.09082 6.25104C5.10609 9.27797 3.75011 13.1715 3.75011 16.6364C3.75011 20.197 5.18858 22.6839 7.42598 24.2286C9.59238 25.7242 12.3779 26.25 15.0001 26.25C17.6224 26.25 20.4078 25.7242 22.5742 24.2286C24.8116 22.6839 26.2501 20.197 26.2501 16.6364C26.2501 13.1715 24.8941 9.27797 22.9094 6.25104C21.9116 4.72923 20.7228 3.37655 19.4085 2.393C18.098 1.41221 16.5945 0.75 15.0001 0.75ZM6.25011 16.6364C6.25011 13.75 7.40885 10.3253 9.18148 7.62187C10.0623 6.2785 11.0629 5.16295 12.0896 4.39457C13.12 3.62343 14.1092 3.25 15.0001 3.25C15.891 3.25 16.8802 3.62343 17.9106 4.39457C18.9373 5.16295 19.9379 6.2785 20.8187 7.62187C22.5914 10.3253 23.7501 13.75 23.7501 16.6364C23.7501 19.427 22.6739 21.1219 21.1539 22.1712C19.791 23.1122 17.9704 23.5996 16.0001 23.72V20.067C16.2257 19.9368 16.4307 19.7589 16.5998 19.5334L17.5998 18.2C18.5887 16.8816 17.6479 15 15.9998 15H13.9998C12.3517 15 11.411 16.8816 12.3998 18.2L13.3998 19.5334C13.5691 19.7591 13.7743 19.9371 14.0001 20.0673V23.72C12.0298 23.5996 10.2093 23.1122 8.84632 22.1712C7.32636 21.1219 6.25011 19.427 6.25011 16.6364ZM15.9998 17L14.9998 18.3334L13.9998 17H15.9998Z" fill="#1E1F27"/>
</g>
</svg>
