<svg width="100" height="100" viewBox="0 0 100 100" fill="none" xmlns="http://www.w3.org/2000/svg">
<g id="Group 176429">
<g id="Vector">
<path d="M0 5.26077C0 2.35532 2.36886 0 5.291 0H49.7126C77.4856 0 100 22.529 100 50.1433C100 77.5997 77.6142 100 50 100C22.3858 100 0 77.7422 0 50.2857V5.26077Z" fill="#F8DB46"/>
<path fill-rule="evenodd" clip-rule="evenodd" d="M49.7126 3.22557H5.291C4.16053 3.22557 3.2441 4.13676 3.2441 5.26077V50.2857C3.2441 75.9607 24.1774 96.7744 50 96.7744C75.8105 96.7744 96.7559 75.8303 96.7559 50.1433C96.7559 24.2984 75.6818 3.22557 49.7126 3.22557ZM5.291 0C2.36886 0 0 2.35532 0 5.26077V50.2857C0 77.7422 22.3858 100 50 100C77.6142 100 100 77.5997 100 50.1433C100 22.529 77.4856 0 49.7126 0H5.291Z" fill="#1E1F27"/>
</g>
<g id="Mask group">
<mask id="mask0_76_537" style="mask-type:alpha" maskUnits="userSpaceOnUse" x="3" y="2" width="94" height="95">
<path id="backgroud" d="M3.24707 7.81822C3.24707 5.10366 5.4603 2.90308 8.19047 2.90308H49.4756C75.5443 2.90308 96.6773 24.1584 96.6773 50.0782L-nan -nanL96.6773 50.0782C96.6773 75.7309 75.7622 96.7671 49.9622 96.7671L-nan -nanL49.9622 96.7671C24.1621 96.7671 3.24707 75.9715 3.24707 50.3189V7.81822Z" fill="#F8DB46"/>
</mask>
<g mask="url(#mask0_76_537)">
<g id="Group 176428">
<g id="Group 176427">
<path id="dog" d="M36.9504 56.5325C36.9504 49.1896 25.6012 54.9948 18.7229 51.0676C11.8447 47.1404 8.23367 33.3088 10.985 31.43C13.7363 29.5511 26.1173 28.185 26.1173 28.185C26.1173 28.185 30.8221 19.1388 36.4347 17.0853C42.0473 15.0317 49.2571 14.7196 56.3073 16.5264C63.3575 18.3333 68.3834 26.8571 68.3834 26.8571L90.3443 62.2133L85.4872 92.1839L36.9504 104.684V56.5325Z" fill="#FFF9E1"/>
<path id="dog (Stroke)" fill-rule="evenodd" clip-rule="evenodd" d="M35.8853 15.5718C41.844 13.3916 49.3938 13.0865 56.7229 14.9648C60.7113 15.9869 63.9946 18.853 66.2044 21.2893C67.3284 22.5284 68.2184 23.7053 68.8283 24.5735C69.134 25.0084 69.3709 25.3682 69.5335 25.6225C69.6147 25.7497 69.6775 25.8507 69.7211 25.9218C69.7429 25.9573 69.7598 25.9854 69.7719 26.0055L69.782 26.0223L92.0525 61.877L86.9307 93.481L35.3391 106.767V56.5326C35.3391 55.817 35.2009 55.4052 35.059 55.1635C34.926 54.9368 34.7268 54.7506 34.388 54.5917C33.5992 54.2215 32.3285 54.1103 30.4455 54.1319C29.9646 54.1375 29.4466 54.1515 28.904 54.1663C27.4894 54.2047 25.9083 54.2476 24.3851 54.1556C22.2407 54.026 19.956 53.6254 17.9259 52.4663C13.9724 50.209 11.1799 45.3116 9.71655 40.996C8.97172 38.7994 8.52201 36.6144 8.45581 34.7972C8.42285 33.8924 8.48213 33.0105 8.68847 32.2382C8.88854 31.4893 9.28234 30.6436 10.0774 30.1006C11.0323 29.4485 12.5885 28.9558 14.1201 28.5676C15.7295 28.1597 17.5843 27.8042 19.324 27.5127C21.0687 27.2203 22.7228 26.988 23.939 26.8289C24.3956 26.7692 24.7914 26.7197 25.108 26.6811C25.2325 26.4629 25.3833 26.2039 25.5583 25.9125C26.1068 24.9995 26.9001 23.7576 27.879 22.4448C29.7773 19.899 32.5981 16.7745 35.8853 15.5718ZM26.3068 29.7881L26.2746 29.7916C26.2622 29.7931 26.2461 29.7949 26.2266 29.7971C26.2112 29.7988 26.1937 29.8008 26.174 29.8031C26.085 29.8133 25.9532 29.8286 25.7839 29.8488C25.4453 29.8892 24.9571 29.9491 24.3621 30.0269C23.1709 30.1827 21.5577 30.4094 19.8632 30.6934C18.1638 30.9782 16.4074 31.3166 14.9215 31.6932C13.4036 32.078 12.3949 32.4498 11.9524 32.7341C11.932 32.7657 11.8789 32.8601 11.8238 33.0663C11.7279 33.4254 11.6717 33.963 11.6978 34.6804C11.7498 36.1078 12.1169 37.9784 12.7906 39.9655C14.1645 44.0172 16.6167 47.9992 19.5414 49.6691C20.9504 50.4736 22.6637 50.82 24.5819 50.9359C25.9539 51.0189 27.303 50.9821 28.6639 50.9449C29.2422 50.9291 29.8227 50.9133 30.408 50.9066C32.2221 50.8857 34.2185 50.9454 35.7726 51.6747C36.6054 52.0654 37.3465 52.6611 37.861 53.5378C38.3666 54.3994 38.5832 55.4125 38.5832 56.5326V102.6L84.0651 90.887L88.6575 62.5498L67.0042 27.6889L66.9955 27.6741L66.9951 27.6735L66.9948 27.6729L66.987 27.6599C66.9797 27.6476 66.9675 27.6276 66.9508 27.6003C66.9173 27.5456 66.8652 27.4617 66.7953 27.3523C66.6554 27.1334 66.4447 26.8132 66.169 26.4208C65.6163 25.6342 64.8091 24.5672 63.7953 23.4495C61.7297 21.1722 58.9749 18.8729 55.9132 18.0882C49.1419 16.3529 42.2721 16.672 37.0056 18.5989C34.6802 19.4497 32.3423 21.8751 30.485 24.3658C29.5862 25.5712 28.8525 26.7192 28.3434 27.5666C28.0895 27.9893 27.8929 28.3347 27.7611 28.572C27.6953 28.6906 27.6457 28.782 27.6133 28.8423C27.6021 28.8633 27.5929 28.8805 27.5859 28.8937C27.5828 28.8996 27.5801 28.9046 27.5778 28.9089L27.57 28.9238L27.5689 28.9259L27.5686 28.9263L27.17 29.6928L26.3068 29.7881Z" fill="#1E1F27"/>
<path id="dog2" d="M67.2839 20.1054L55.3621 16.3459C49.6293 13.6515 50.644 34.2523 55.1663 36.1059C59.6885 37.9596 73.1283 22.3807 67.2839 20.1054Z" fill="#FFF9E1"/>
<path id="dog2 (Stroke)" fill-rule="evenodd" clip-rule="evenodd" d="M55.0307 33.7768C55.4001 34.3814 55.6825 34.5718 55.7877 34.6149C55.8515 34.6411 56.121 34.7045 56.7303 34.5091C57.3172 34.3208 58.0459 33.9455 58.8727 33.3795C60.5211 32.251 62.3306 30.5229 63.8521 28.643C65.3901 26.7426 66.514 24.8345 66.9369 23.3786C67.1495 22.6469 67.1359 22.1949 67.0697 21.9632C67.0325 21.8332 66.9785 21.7264 66.7364 21.6237L54.7708 17.8504L54.6721 17.804C54.4891 17.718 54.4001 17.716 54.3864 17.7161C54.3858 17.7161 54.3853 17.716 54.3849 17.7159C54.3832 17.7155 54.3819 17.7151 54.3671 17.724C54.289 17.7712 54.0486 17.9872 53.7849 18.6384C53.2657 19.9206 52.9939 22.0444 53.0435 24.4879C53.0923 26.8944 53.4483 29.4122 54.0411 31.3988C54.3382 32.3943 54.678 33.1995 55.0307 33.7768ZM55.9488 14.838C54.8656 14.3623 53.7098 14.3475 52.6838 14.9667C51.7378 15.5377 51.1522 16.5035 50.7756 17.4337C50.014 19.3142 49.7472 21.9513 49.8 24.5529C49.8536 27.1915 50.2408 30.0031 50.931 32.3163C51.2755 33.4707 51.7121 34.5579 52.2581 35.4515C52.7873 36.3178 53.5259 37.1767 54.5513 37.597C55.618 38.0343 56.7577 37.8895 57.7262 37.5788C58.717 37.2611 59.7346 36.7056 60.7124 36.0362C62.6733 34.6939 64.7063 32.7326 66.3795 30.6651C68.0362 28.6181 69.459 26.3207 70.0537 24.2736C70.3499 23.2538 70.4899 22.1298 70.1902 21.0813C69.8633 19.9381 69.0627 19.0647 67.8785 18.6037L67.8286 18.5842L55.9488 14.838Z" fill="#1E1F27"/>
<path id="eye dog" d="M40.6283 27.6971C40.6283 28.8738 39.7969 29.8278 38.7712 29.8278C37.7455 29.8278 36.9141 28.8738 36.9141 27.6971C36.9141 26.5204 37.7455 25.5665 38.7712 25.5665C39.7969 25.5665 40.6283 26.5204 40.6283 27.6971Z" fill="#1E1F27"/>
</g>
<g id="Group 176426">
<path id="cat" d="M51.8796 77.3352C50.1839 76.2122 45.1089 69.1038 43.7744 66.7642C45.8155 63.5667 48.72 60.2133 49.4265 56.2361C49.8262 53.9862 53.2579 51.3438 56.3458 49.9976C54.5516 48.1359 53.8169 46.2879 53.3458 44.8842C51.7758 40.2051 64.1173 42.8518 67.4144 46.5949C76.4267 46.5949 79.6173 52.0248 83.1499 56.2361C85.976 59.6051 96.9715 55.6229 99.6405 55.5449L100.06 116.51L66.2589 114.758C66.0234 108.597 66.6316 89.1211 66.6316 87.2123C66.6316 84.3022 67.9219 79.3029 63.0601 77.3352C57.1882 74.9587 53.9991 78.739 51.8796 77.3352Z" fill="#FEF7C1"/>
<path id="cat (Stroke)" fill-rule="evenodd" clip-rule="evenodd" d="M68.1044 44.9921C67.0733 44.0396 65.6829 43.2407 64.2594 42.6152C62.5412 41.8602 60.6076 41.2851 58.8198 40.9901C57.0964 40.7058 55.259 40.6387 53.8709 41.1325C53.1476 41.3898 52.3732 41.8636 51.9263 42.7132C51.4685 43.5834 51.5178 44.5342 51.8065 45.3945C52.1795 46.5063 52.7295 47.944 53.8093 49.4687C52.7476 50.0744 51.7144 50.7875 50.8177 51.5568C49.4612 52.7207 48.1303 54.2563 47.8285 55.9555C47.5265 57.6555 46.742 59.2872 45.7172 60.9497C45.2066 61.7781 44.6515 62.5908 44.0813 63.4167C44.0206 63.5046 43.9596 63.5928 43.8985 63.6812C43.3933 64.4122 42.8769 65.1593 42.4042 65.8998L41.8823 66.7174L42.3628 67.5597C43.0793 68.8158 44.7283 71.2402 46.3878 73.4662C47.2235 74.5873 48.0818 75.6848 48.8482 76.5824C49.567 77.4242 50.3386 78.2528 50.9796 78.6774C52.0091 79.3592 53.1013 79.3336 53.9739 79.1818C54.5081 79.0888 55.1549 78.9033 55.7429 78.7347C56.0042 78.6597 56.2539 78.5881 56.4769 78.5295C58.0833 78.1068 59.9574 77.8209 62.4479 78.8289C63.4033 79.2155 63.9762 79.7134 64.3443 80.2307C64.7218 80.7613 64.9484 81.4041 65.0648 82.1633C65.1826 82.9316 65.1798 83.7628 65.1364 84.6386C65.1235 84.8988 65.1055 85.1805 65.087 85.4689C65.0488 86.0654 65.0088 86.6903 65.0088 87.2122C65.0088 87.6499 64.971 89.2032 64.9179 91.384C64.7581 97.944 64.4601 110.182 64.6373 114.819L64.6936 116.291L101.693 118.21L101.25 53.8843L99.5922 53.9327C98.7244 53.9581 97.342 54.2742 95.978 54.5861L95.971 54.5877C95.8739 54.6099 95.776 54.6324 95.6772 54.655C94.2864 54.9735 92.7328 55.3293 91.18 55.5933C89.5048 55.8782 87.931 56.0375 86.6526 55.9512C85.3183 55.8611 84.6679 55.5285 84.3949 55.203C84.0339 54.7726 83.6624 54.3094 83.2756 53.8271C81.8992 52.1108 80.3293 50.1532 78.3503 48.5773C75.832 46.5719 72.6234 45.1258 68.1044 44.9921ZM54.8411 44.2198C54.849 44.2584 54.8621 44.309 54.8838 44.3736C55.3204 45.6749 55.9597 47.2666 57.5163 48.8817L59.1221 50.5479L56.9965 51.4746C55.5898 52.0879 54.0997 53.0014 52.9371 53.9989C51.7059 55.0552 51.121 55.9657 51.0232 56.5165C50.6186 58.7938 49.5976 60.8273 48.4832 62.6352C47.9242 63.542 47.3264 64.4158 46.7559 65.2421C46.6947 65.3308 46.6339 65.4188 46.5735 65.5062C46.2671 65.9495 45.9713 66.3776 45.6888 66.7977C46.4582 68.0111 47.7012 69.8113 48.994 71.5454C49.8057 72.6343 50.6176 73.6707 51.3213 74.4948C52.0726 75.3748 52.5713 75.8559 52.7781 75.9928C52.7789 75.9934 52.7797 75.9939 52.7806 75.9945C52.8139 76.0169 52.9227 76.0901 53.4146 76.0045C53.784 75.9402 54.1345 75.8386 54.5945 75.7052C54.8892 75.6197 55.2288 75.5213 55.6471 75.4112C57.6331 74.8887 60.2896 74.4728 63.671 75.8413C65.1465 76.4385 66.2354 77.3035 66.9927 78.3678C67.7406 79.419 68.1031 80.5769 68.2718 81.6772C68.4391 82.7684 68.4232 83.8557 68.3766 84.7972C68.3577 85.1791 68.3356 85.5183 68.3153 85.829C68.2815 86.3474 68.2529 86.7866 68.2529 87.2122C68.2529 87.7601 68.21 89.5216 68.1513 91.9286C68.0046 97.9525 67.7593 108.019 67.8417 113.225L98.4256 114.81L98.0307 57.4339C97.6444 57.5166 97.2005 57.6163 96.6981 57.7312C96.5973 57.7543 96.4948 57.7778 96.3909 57.8016C95.014 58.117 93.375 58.4925 91.7268 58.7727C89.9662 59.0721 88.0945 59.2815 86.4329 59.1694C84.8274 59.061 83.0436 58.628 81.9036 57.269C81.4498 56.7281 81.0186 56.1914 80.5947 55.664C79.2559 53.998 77.9907 52.4235 76.3224 51.095C74.2356 49.4333 71.5402 48.2076 67.4137 48.2076H66.6781L66.1935 47.6574C65.5962 46.9793 64.4556 46.228 62.9481 45.5655C61.474 44.9178 59.8022 44.4219 58.2887 44.1721C56.7108 43.9118 55.5511 43.9606 54.9637 44.1695C54.9117 44.188 54.8716 44.2051 54.8411 44.2198ZM54.8306 44.1193C54.8309 44.1195 54.8309 44.1233 54.8297 44.1302C54.8298 44.1227 54.8303 44.1192 54.8306 44.1193ZM54.7606 44.2668C54.758 44.2694 54.7564 44.2707 54.7563 44.2706C54.7562 44.2706 54.7575 44.2692 54.7606 44.2668Z" fill="#1E1F27"/>
<path id="eye cat" d="M56.6231 63.3495C55.6763 63.3495 54.9088 62.3956 54.9088 61.2189C54.9088 60.0422 55.6763 59.0883 56.6231 59.0883C57.5699 59.0883 58.3374 60.0422 58.3374 61.2189C58.3374 62.3956 57.5699 63.3495 56.6231 63.3495Z" fill="#1E1F27"/>
</g>
</g>
</g>
</g>
</g>
</svg>
