<svg width="24" height="24" viewBox="0 0 24 24" fill="none" xmlns="http://www.w3.org/2000/svg">
<g id="Icon_Phone">
<path id="Shape" fill-rule="evenodd" clip-rule="evenodd" d="M4.48456 4.28993C4.1984 4.57641 3.93602 4.92781 3.76636 5.23381C3.50498 5.69257 3.3505 6.18664 3.25179 6.70194C2.47403 10.6479 3.46178 14.1779 6.72244 17.4153C8.86183 19.5394 10.4841 20.4123 12.7054 20.731C13.95 20.9095 15.2155 20.9248 16.469 20.9962C17.0245 21.0279 17.6184 20.9096 18.1495 20.7541C18.7463 20.5432 19.2913 20.2012 19.7476 19.7444C21.4175 18.0727 21.4175 15.3623 19.7476 13.6906L19.5988 13.5486C17.9846 12.0787 15.5161 12.0653 13.8868 13.5155L12.6613 14.7238C12.4351 14.9503 12.0788 14.981 11.8173 14.7965C11.2731 14.4128 9.82742 12.9978 9.47451 12.5155C9.28266 12.2534 9.31052 11.8903 9.54011 11.6606C9.92872 11.2799 10.3216 10.9031 10.7061 10.5183C12.4241 8.79836 12.4241 6.00984 10.7061 4.28993C8.98805 2.57002 6.20259 2.57002 4.48456 4.28993Z" fill="#1E1F27"/>
</g>
</svg>
