<svg width="36" height="36" viewBox="0 0 36 36" fill="none" xmlns="http://www.w3.org/2000/svg">
<g id="Icon">
<path id="Shape" d="M10.3191 5.99185C13.5828 5.17573 15.7257 6.19685 17.0304 7.50161C17.1726 7.64373 17.304 7.78836 17.4253 7.93321C17.5678 8.10333 17.7783 8.20161 18.0003 8.20161C18.2222 8.20161 18.4327 8.10333 18.5752 7.9332C18.6965 7.78835 18.8279 7.64372 18.97 7.50161C20.2749 6.19681 22.4179 5.17575 25.6822 5.99184C28.9428 6.80698 31.4035 9.25861 32.2248 12.3387C33.0515 15.4395 32.1967 19.0833 29.0302 22.2498C25.5267 25.7533 22.5361 28.7454 20.654 30.6287C19.1897 32.094 16.8186 32.0946 15.3536 30.6298L6.97225 22.2498C3.80448 19.0826 2.94965 15.4387 3.77671 12.338C4.59825 9.2581 7.05941 6.80698 10.3191 5.99185Z" fill="#FF3D9A"/>
</g>
</svg>
