<svg width="32" height="32" viewBox="0 0 32 32" fill="none" xmlns="http://www.w3.org/2000/svg">
<g id="Icon">
<path id="Shape" d="M9.17254 5.32636C12.0736 4.60092 13.9784 5.50858 15.1382 6.66837C15.2645 6.7947 15.3813 6.92326 15.4892 7.05201C15.6158 7.20323 15.803 7.29059 16.0002 7.29059C16.1975 7.29059 16.3846 7.20323 16.5113 7.05201C16.6191 6.92325 16.7359 6.79469 16.8623 6.66837C18.0221 5.50854 19.9271 4.60094 22.8287 5.32635C25.7269 6.05092 27.9142 8.23014 28.6442 10.968C29.3791 13.7243 28.6193 16.9632 25.8046 19.7779C22.6904 22.8921 20.0321 25.5517 18.3591 27.2258C17.0575 28.5282 14.9499 28.5288 13.6476 27.2268L6.19755 19.7779C3.38176 16.9625 2.62191 13.7236 3.35708 10.9674C4.08733 8.22969 6.27503 6.05092 9.17254 5.32636Z" fill="white"/>
</g>
</svg>
