<svg width="31" height="26" viewBox="0 0 31 26" fill="none" xmlns="http://www.w3.org/2000/svg">
<g id="Shape">
<path d="M19.349 3.03948C19.4125 2.99692 19.4778 2.95619 19.5449 2.91743C20.4013 2.42302 21.3833 2.34953 22.2918 2.47699C23.2062 2.60527 24.1416 2.94825 25.014 3.4093C26.7432 4.32321 28.4341 5.81394 29.4008 7.48824C30.4106 9.23733 30.4679 10.9195 29.8124 12.3759C29.19 13.7588 27.9972 14.7807 26.7949 15.4748C26.3915 15.7077 25.9565 15.9213 25.4997 16.0965C25.4969 15.2497 25.4051 14.3689 25.2363 13.4783C25.339 13.4254 25.4419 13.3692 25.5449 13.3097C26.495 12.7612 27.2048 12.0784 27.5327 11.3499C27.8274 10.6949 27.8827 9.85892 27.2357 8.73824C26.5455 7.5428 25.2384 6.35556 23.8458 5.61961C23.1573 5.25572 22.5008 5.03079 21.9444 4.95274C21.6738 4.91477 21.4483 4.91401 21.2627 4.93759C20.6616 4.20922 20.0186 3.56633 19.349 3.03948Z" fill="white"/>
<path d="M11.6508 3.03925C11.5874 2.99678 11.5222 2.95612 11.4552 2.91743C10.5989 2.42302 9.6168 2.34953 8.70835 2.47699C7.79398 2.60527 6.85858 2.94825 5.9862 3.4093C4.2569 4.32321 2.56603 5.81394 1.59937 7.48824C0.589539 9.23733 0.532235 10.9195 1.18775 12.3759C1.81015 13.7588 3.00297 14.7807 4.20521 15.4748C4.60851 15.7076 5.04321 15.9211 5.49982 16.0963C5.50264 15.2494 5.59446 14.3686 5.76326 13.478C5.66075 13.4252 5.55801 13.3691 5.45521 13.3097C4.50514 12.7612 3.79538 12.0784 3.46749 11.3499C3.17271 10.6949 3.11742 9.85892 3.76444 8.73824C4.45463 7.5428 5.76176 6.35556 7.15432 5.61961C7.84287 5.25572 8.49937 5.03079 9.0557 4.95274C9.32605 4.91481 9.55136 4.91401 9.73688 4.93752C10.3381 4.20907 10.9811 3.56613 11.6508 3.03925Z" fill="white"/>
<path d="M14.6998 18.4333C15.0998 18.9667 15.8998 18.9667 16.2998 18.4333L17.2998 17.1C17.7942 16.4408 17.3238 15.5 16.4998 15.5H14.4998C13.6757 15.5 13.2053 16.4408 13.6998 17.1L14.6998 18.4333Z" fill="#F5F5F5"/>
<path d="M13.5002 11C13.5002 11.8284 12.8287 12.5 12.0002 12.5C11.1718 12.5 10.5002 11.8284 10.5002 11C10.5002 10.1716 11.1718 9.5 12.0002 9.5C12.8287 9.5 13.5002 10.1716 13.5002 11Z" fill="white"/>
<path d="M20.5002 11C20.5002 11.8284 19.8287 12.5 19.0002 12.5C18.1718 12.5 17.5002 11.8284 17.5002 11C17.5002 10.1716 18.1718 9.5 19.0002 9.5C19.8287 9.5 20.5002 10.1716 20.5002 11Z" fill="white"/>
<path fill-rule="evenodd" clip-rule="evenodd" d="M15.5002 0.25C13.9059 0.25 12.4024 0.91221 11.0918 1.893C9.77757 2.87655 8.58879 4.22923 7.59094 5.75104C5.60621 8.77797 4.25023 12.6715 4.25023 16.1364C4.25023 19.697 5.6887 22.1839 7.9261 23.7286C10.0925 25.2242 12.878 25.75 15.5002 25.75C18.1225 25.75 20.908 25.2242 23.0744 23.7286C25.3118 22.1839 26.7502 19.697 26.7502 16.1364C26.7502 12.6715 25.3943 8.77797 23.4095 5.75104C22.4117 4.22923 21.2229 2.87655 19.9086 1.893C18.5981 0.91221 17.0946 0.25 15.5002 0.25ZM6.75023 16.1364C6.75023 13.25 7.90897 9.8253 9.6816 7.12187C10.5624 5.7785 11.563 4.66295 12.5897 3.89457C13.6202 3.12343 14.6093 2.75 15.5002 2.75C16.3912 2.75 17.3803 3.12343 18.4107 3.89457C19.4375 4.66295 20.438 5.7785 21.3189 7.12187C23.0915 9.8253 24.2502 13.25 24.2502 16.1364C24.2502 18.927 23.174 20.6219 21.654 21.6712C20.2911 22.6122 18.4705 23.0996 16.5002 23.22V19.567C16.7258 19.4368 16.9308 19.2589 17.1 19.0334L18.1 17.7C19.0888 16.3816 18.148 14.5 16.5 14.5H14.5C12.8519 14.5 11.9111 16.3816 12.9 17.7L13.9 19.0334C14.0693 19.2591 14.2744 19.4371 14.5002 19.5673V23.22C12.53 23.0996 10.7094 22.6122 9.34644 21.6712C7.82648 20.6219 6.75023 18.927 6.75023 16.1364ZM16.5 16.5L15.5 17.8334L14.5 16.5H16.5Z" fill="white"/>
</g>
</svg>
