<svg width="152" height="115" viewBox="0 0 152 115" fill="none" xmlns="http://www.w3.org/2000/svg">
<g id="Bone_Drawing">
<path id="Vector 1148" d="M148.59 100.559C145.998 98.4499 139.548 97.1194 135.045 97.6168C128.848 99.2489 125.862 103.628 128.624 106.719C136.52 116.279 152.879 108.966 145.935 106.719" stroke="white" stroke-width="6" stroke-linecap="round"/>
<path id="Vector" d="M37.7768 35.0583C44.7277 35.1615 48.8724 34.6146 59.6066 30.3089C70.3639 25.994 81.9873 27.6125 85.1206 14.6713C88.2539 1.73 98.693 1.93835 104.77 5.88659C120.754 16.2722 99.7472 28.3545 104.918 26.969C116.658 23.8232 125.898 39.5736 117.403 48.9273C107.487 57.085 96.7881 46.3481 90.4235 42.6734C79.8136 36.5479 50.6113 52.0618 41.86 55.686M24.648 32.9458C13.3014 25.9782 6.04575 33.4864 4.52045 40.5709C0.508252 59.2061 23.924 52.9619 19.2803 55.6253C8.73687 61.6726 13.2905 79.3562 25.9098 79.9991C38.6932 78.7923 38.7094 63.635 40.6318 56.5416M84.4142 14.471C87.5475 1.52974 97.9866 1.73809 104.063 5.68634C120.048 16.072 99.0408 28.1543 104.212 26.7687C115.952 23.6229 125.192 39.3734 116.696 48.727C106.78 56.8847 96.0817 46.1478 89.7171 42.4732C79.1072 36.3476 50.1898 51.7979 41.4385 55.4221C39.5162 62.5155 37.99 78.5938 25.2066 79.8005C12.5874 79.1576 8.03369 61.474 18.5771 55.4267C23.2208 52.7633 -0.194926 59.0076 3.81727 40.3723C5.34257 33.2878 12.5982 25.7796 23.9449 32.7472C29.5618 34.7018 32.4356 35.2153 37.0704 34.8581C44.0213 34.9613 48.166 34.4143 58.9002 30.1087C69.6575 25.7937 81.2809 27.4122 84.4142 14.471Z" stroke="#1E1F27" stroke-width="6" stroke-linecap="round"/>
</g>
</svg>
