<svg width="198" height="153" viewBox="0 0 198 153" fill="none" xmlns="http://www.w3.org/2000/svg">
<g id="Collar">
<g id="Vector">
<path fill-rule="evenodd" clip-rule="evenodd" d="M21.9906 3.78869C21.9906 3.78875 21.9907 3.78836 21.9906 3.78869C21.9872 3.81236 21.9836 3.83593 21.9797 3.85939C21.9873 3.818 21.9902 3.79275 21.9906 3.78869ZM17.9966 6.18484C18.0235 6.23339 18.0471 6.27672 18.0668 6.3127C20.8608 11.4351 24.6531 16.0621 28.2663 20.2022C40.8847 34.6608 55.9778 45.9526 73.5738 53.7276C94.0213 62.7625 117.698 63.8097 139.034 63.8097C149.647 63.8097 178.035 61.9611 188.568 60.4705C190.209 60.2384 191.35 58.7203 191.118 57.0798C190.886 55.4393 189.368 54.2976 187.727 54.5297C177.502 55.9767 149.397 57.8097 139.034 57.8097C117.711 57.8097 95.1801 56.7149 75.9988 48.2395C59.2333 40.8314 44.8481 30.0772 32.7869 16.257C29.2197 12.1696 25.7962 7.95327 23.3341 3.43959C23.3305 3.43285 23.3256 3.42385 23.3196 3.41274C23.2139 3.21754 22.7559 2.37186 22.2509 1.70448C22.1085 1.51618 21.9147 1.27749 21.6793 1.04749C21.4955 0.867852 21.043 0.446277 20.3629 0.197859C19.9857 0.0600722 19.4218 -0.066971 18.7538 0.0397625C18.044 0.153191 17.4436 0.495325 17.0018 0.943207C16.2493 1.70602 16.0969 2.61832 16.0509 2.94016C15.8464 4.3717 16.6886 5.71137 17.9966 6.18484Z" fill="#F5F5F5"/>
<path fill-rule="evenodd" clip-rule="evenodd" d="M90.2865 129.393C89 130.254 87.7226 131.139 86.4505 132.051C85.104 133.016 83.2298 132.707 82.2643 131.361C81.2989 130.014 81.6078 128.14 82.9544 127.175C88.9456 122.879 95.0647 119.146 101.645 115.805C103.979 114.619 106.221 113.791 109.087 113.511C109.695 113.452 110.338 113.44 110.964 113.542C111.567 113.641 112.418 113.891 113.14 114.579C114.924 116.279 114.081 118.442 113.789 119.047C113.396 119.864 112.794 120.578 112.326 121.075C111.821 121.611 111.275 122.099 110.81 122.466C110.478 122.728 110.144 122.985 109.808 123.237C110.924 122.841 112.063 122.506 113.222 122.247C115.259 121.791 118.421 121.765 120.53 124.477C121.086 125.191 121.395 126.049 121.402 126.959C121.41 127.814 121.151 128.536 120.879 129.067C120.363 130.069 119.546 130.865 118.935 131.396C118.275 131.97 117.564 132.479 117.019 132.857C116.88 132.953 116.748 133.045 116.628 133.126C116.507 133.21 116.402 133.282 116.307 133.348C116.092 133.497 116.025 133.55 116.026 133.549C114.127 135.131 112.278 136.739 110.498 138.406C109.897 138.969 109.359 139.446 108.838 139.908C108.273 140.408 107.728 140.891 107.144 141.447C108.51 140.99 109.89 140.394 111.382 139.725C111.576 139.638 111.772 139.55 111.971 139.46C114.062 138.518 116.409 137.462 118.928 136.788C118.937 136.785 118.978 136.771 119.07 136.739C119.102 136.728 119.157 136.708 119.222 136.685C119.332 136.646 119.471 136.597 119.572 136.562C119.954 136.429 120.499 136.245 121.036 136.114C121.303 136.049 121.641 135.979 122.001 135.946C122.287 135.919 122.938 135.877 123.649 136.124C124.043 136.261 124.572 136.528 125.028 137.045C125.511 137.593 125.757 138.245 125.815 138.873C125.914 139.944 125.461 140.767 125.274 141.082C124.366 142.62 123.556 144.113 122.845 145.678C122.16 147.186 120.381 147.853 118.873 147.167C117.538 146.561 116.862 145.098 117.2 143.724C116.285 144.1 115.352 144.519 114.364 144.963C114.19 145.041 114.014 145.12 113.836 145.2C111.518 146.239 108.901 147.378 106.001 147.958C105.596 148.039 105.013 148.071 104.548 148.08C104.011 148.091 103.312 148.078 102.614 147.99C102.035 147.917 100.981 147.744 100.078 147.154C99.5756 146.826 98.8928 146.22 98.5666 145.218C98.225 144.17 98.4391 143.201 98.7688 142.507C99.6957 140.559 101.155 138.913 102.514 137.578C103.293 136.813 104.259 135.95 105.098 135.201C105.599 134.754 106.055 134.347 106.397 134.026C108.284 132.26 110.224 130.574 112.185 128.94C112.312 128.834 112.452 128.728 112.586 128.631C108.547 129.918 104.615 132.316 100.95 135.005C100.69 135.196 97.3569 137.639 94.2786 139.465C92.8464 140.314 91.0719 141.277 89.6359 141.607C89.2455 141.697 88.6936 141.787 88.0815 141.727C87.4558 141.667 86.4997 141.416 85.7463 140.56C84.9873 139.698 84.8548 138.701 84.883 138.032C84.9104 137.384 85.0901 136.802 85.2638 136.358C86.3 133.71 88.2618 131.261 90.2865 129.393Z" fill="#F1D06E"/>
<path fill-rule="evenodd" clip-rule="evenodd" d="M19.4365 2.02275C20.1774 3.50469 19.5768 5.30671 18.0948 6.04767C12.196 8.99708 7.65944 15.1394 7.65944 21.505C7.65944 22.6916 7.81713 23.8979 8.00987 25.3114C8.01578 25.3548 8.02173 25.3984 8.02772 25.4422C8.20703 26.7555 8.4153 28.2809 8.4153 29.8194C8.4153 31.5338 8.63301 31.9513 8.76101 32.1738C8.87312 32.3687 9.04148 32.596 9.41699 33.0505C9.47459 33.1203 9.53645 33.1946 9.60214 33.2736C9.93522 33.674 10.3666 34.1927 10.8387 34.8222C11.7865 36.0859 11.5865 37.854 10.4171 38.8776C10.6612 39.1387 10.8967 39.3948 11.1082 39.6344C11.4072 39.9733 11.7093 40.3144 12.0136 40.658C14.435 43.3918 16.9949 46.282 19.2066 49.425C23.2017 55.1022 30.1296 60.9352 36.3475 64.2515C39.6168 65.9951 42.837 67.9402 45.9552 69.8237C47.7651 70.917 49.5407 71.9895 51.2717 72.9898C56.1124 75.7874 60.9517 78.2427 66.3625 79.8544C73.081 81.8557 79.6847 83.7276 86.3254 85.2823C86.4514 77.3371 87.8009 69.7441 90.2389 62.1593C90.7459 60.5819 92.4356 59.7142 94.013 60.2212C95.5904 60.7282 96.4581 62.4179 95.9511 63.9953C95.4533 65.5438 95.0052 67.0894 94.6076 68.6359C95.86 66.3099 97.521 64.2337 99.287 62.4677C100.459 61.2961 102.358 61.2961 103.53 62.4677C104.701 63.6393 104.701 65.5387 103.53 66.7103C100.395 69.8448 98.3614 73.4538 98.3614 77.0607C98.3614 77.513 98.3559 77.9625 98.3506 78.376C99.6147 77.2944 100.9 76.0967 102.27 74.8193L102.506 74.5993C103.969 73.236 105.521 71.7964 107.138 70.4363C110.284 67.7905 113.897 65.2503 118.052 64.0039C118.108 63.9686 118.18 63.9212 118.269 63.8604C118.549 63.6684 118.863 63.4352 119.129 63.2354C119.245 63.149 119.384 63.0444 119.481 62.9744C119.508 62.9547 119.546 62.9278 119.588 62.8992L119.59 62.8978C119.616 62.88 119.714 62.8131 119.839 62.7434L119.843 62.7411C119.884 62.7176 120.097 62.5977 120.384 62.5041L120.391 62.5019C120.498 62.4671 120.983 62.3082 121.614 62.3716C121.978 62.4082 122.598 62.5396 123.194 63.0179C123.846 63.5418 124.173 64.2427 124.276 64.8715C124.432 65.8209 124.078 66.5393 124.021 66.6534L124.017 66.663C123.91 66.8847 123.798 67.0438 123.751 67.1094C123.648 67.2533 123.554 67.3569 123.524 67.3896C123.376 67.5529 123.163 67.7407 123.067 67.826L123.045 67.8452C122.887 67.9858 122.661 68.1833 122.361 68.4454C120.546 70.0282 118.817 71.785 117.022 73.607C116.425 74.2137 115.821 74.8276 115.203 75.4447C114.879 75.7688 114.213 76.3379 113.488 76.9575C113.164 77.2346 112.828 77.5218 112.505 77.8017C112.069 78.1807 111.613 78.5822 111.157 78.996C113.738 77.0736 116.572 75.358 119.251 73.7368C120.484 72.9909 121.683 72.2651 122.809 71.5482C123.289 71.243 123.99 70.8078 124.653 70.6142C124.832 70.5619 125.293 70.4373 125.873 70.4897C126.54 70.5499 127.737 70.9172 128.357 72.2054C128.846 73.2201 128.614 74.1323 128.543 74.3873C128.444 74.7405 128.303 75.011 128.226 75.1504C127.949 75.6473 127.518 76.148 127.244 76.46C126.905 76.8463 126.493 77.2868 126.068 77.7328C125.686 78.1332 125.304 78.528 124.927 78.918C124.58 79.2762 124.238 79.6303 123.903 79.9809C123.909 79.9802 123.914 79.9795 123.919 79.9788C124.075 79.9593 124.259 79.9353 124.445 79.9109C124.691 79.8788 124.94 79.8463 125.13 79.8232C125.473 79.7816 125.936 79.7296 126.352 79.7296C127.027 79.7296 127.65 79.9528 128.152 80.3294C128.209 80.071 128.266 79.8023 128.325 79.5203L128.343 79.4327C128.459 78.8801 128.591 78.2529 128.745 77.6749C129.303 75.5759 129.865 73.5595 130.422 71.5625C131.135 69.0012 131.84 66.4718 132.518 63.8407C132.931 62.2362 134.567 61.2705 136.171 61.6838C137.776 62.0971 138.742 63.7328 138.328 65.3373C137.655 67.9526 136.906 70.6435 136.166 73.3004C135.608 75.308 135.054 77.2963 134.543 79.2179C134.431 79.6379 134.329 80.1257 134.199 80.7443L134.197 80.753C134.073 81.3424 133.927 82.0355 133.745 82.722C133.41 83.9891 132.822 85.7946 131.498 87.1185C130.326 88.2901 128.426 88.2901 127.255 87.1185C126.856 86.7199 126.593 86.2372 126.466 85.7275C126.428 85.7289 126.39 85.7296 126.352 85.7296C126.355 85.7296 126.356 85.7296 126.356 85.7296C126.356 85.7297 126.32 85.7307 126.235 85.7381C126.138 85.7466 126.013 85.7601 125.852 85.7796C125.657 85.8032 125.481 85.8264 125.282 85.8526C125.105 85.8759 124.91 85.9016 124.667 85.932C123.785 86.0428 122.599 86.1746 121.477 86.1416C120.912 86.1249 120.257 86.0648 119.606 85.892C118.974 85.7241 118.135 85.3947 117.424 84.6931C116.854 84.1311 116.478 83.4403 116.306 82.6878C115.716 83.0938 115.132 83.5126 114.552 83.9497C114.079 84.3058 113.658 84.6814 113.155 85.1293C113.104 85.1745 113.052 85.2204 113 85.2671C112.472 85.7364 111.803 86.327 111.045 86.8201C110.25 87.3366 109.288 87.7971 108.117 87.9885C106.944 88.1805 105.742 88.0726 104.503 87.7056C103.383 87.3737 102.1 86.6544 101.443 85.2028C101.241 84.7552 101.132 84.3112 101.088 83.8857C100.071 84.6685 99.0786 85.29 98.1207 85.6143C97.4296 85.8484 96.4713 86.0271 95.4364 85.7231C94.3177 85.3945 93.5806 84.6439 93.1489 83.903C92.7563 83.2291 92.587 82.5255 92.4986 81.9998C92.4887 81.9408 92.4794 81.8815 92.4707 81.8221C92.3677 83.372 92.3157 84.9331 92.3157 86.5089C92.3157 86.5362 92.3153 86.5635 92.3146 86.5907C97.5481 87.647 102.832 88.474 108.24 88.9809C122.826 90.3484 138.771 90.5195 153.213 88.8204C157.779 88.2833 162.432 87.9363 167.011 87.5949C169.356 87.4202 171.681 87.2468 173.964 87.0502C180.8 86.4615 187.468 85.653 193.969 83.9813C195.573 83.5687 197.209 84.535 197.621 86.1397C198.034 87.7443 197.068 89.3796 195.463 89.7923C188.479 91.5882 181.422 92.4302 174.479 93.0281C172.045 93.2376 169.648 93.416 167.272 93.5929C162.78 93.9273 158.362 94.2561 153.914 94.7793C141.337 96.259 127.75 96.3621 114.88 95.5258C114.923 95.6798 114.954 95.8393 114.972 96.0033C115.122 97.351 114.354 98.5892 113.168 99.0948C113.082 99.1915 112.964 99.3368 112.819 99.5405C112.357 100.187 111.832 101.119 111.398 102.113C110.993 103.04 110.741 103.851 110.647 104.408C111.091 105.026 111.288 105.799 111.185 106.564C112.057 107.051 112.661 107.961 112.719 109.017C114.545 109.759 116.298 110.68 117.918 111.74C122.516 114.751 126.447 119.157 127.751 124.372C128.547 127.557 129.489 131.411 129.467 135.191C129.445 139.078 128.405 143.12 125.072 146.453C119.111 152.414 111.748 152.332 105.328 152.26C104.64 152.252 103.962 152.245 103.299 152.245C97.6983 152.245 91.3175 148.706 86.9779 144.113C82.6545 139.536 79.3845 132.808 82.1832 126.161C84.9433 119.606 88.2983 114.32 93.1819 110.835C93.364 109.971 93.9246 109.194 94.7764 108.769C97.003 107.655 99.4347 107.11 101.887 106.999C101.888 106.999 101.89 106.999 101.891 106.999C101.601 106.537 101.433 105.99 101.433 105.405C101.433 101.424 102.52 97.8706 103.945 94.5546C90.3521 92.919 77.539 89.4441 64.6496 85.6047C58.5832 83.7977 53.2755 81.0778 48.2695 78.1847C46.3154 77.0554 44.4528 75.9289 42.6133 74.8165C39.6203 73.0064 36.6886 71.2334 33.524 69.5456C26.5852 65.8449 18.9019 59.4179 14.2998 52.878C12.2941 50.0278 9.96749 47.3993 7.51924 44.6334C7.2176 44.2926 6.91411 43.9498 6.60914 43.6041C6.30041 43.2542 5.93678 42.87 5.50242 42.4111C5.36448 42.2654 5.21939 42.1121 5.06667 41.9499C4.46215 41.3082 3.77887 40.5701 3.13267 39.7898C1.95795 38.3714 0.426192 36.2711 0.166074 33.9301C-0.00227927 32.4149 0.988881 31.0381 2.43109 30.6853C2.42029 30.4066 2.4153 30.1184 2.4153 29.8194C2.4153 28.7108 2.25978 27.5514 2.06488 26.1221L2.06039 26.0892C1.87615 24.7381 1.65944 23.1489 1.65944 21.505C1.65944 12.3843 7.95069 4.41153 15.4115 0.68111C16.8935 -0.0598579 18.6955 0.540815 19.4365 2.02275ZM102.687 112.979C95.6838 114.769 91.4336 119.653 87.713 128.489C86.2812 131.89 87.682 136.121 91.3394 139.992C94.9806 143.847 99.8903 146.245 103.299 146.245C103.945 146.245 104.575 146.248 105.188 146.251C111.974 146.282 116.735 146.305 120.83 142.21C122.738 140.302 123.451 137.96 123.468 135.157C123.484 132.247 122.75 129.106 121.93 125.827C121.11 122.546 118.44 119.254 114.632 116.761C110.945 114.347 106.568 112.938 102.687 112.979ZM113.288 98.9689C113.352 98.9097 113.349 98.9248 113.283 98.9731C113.285 98.9716 113.286 98.9703 113.288 98.9689ZM122.988 67.8428C123.018 67.821 123.012 67.8262 122.982 67.8468C122.984 67.8454 122.986 67.8441 122.988 67.8428ZM117.929 64.0771C117.929 64.0764 117.94 64.0705 117.959 64.061C117.938 64.073 117.928 64.0778 117.929 64.0771Z" fill="#F5F5F5"/>
</g>
</g>
</svg>
