<svg width="30" height="26" viewBox="0 0 30 26" fill="none" xmlns="http://www.w3.org/2000/svg">
<g id="Shape">
<path d="M18.8488 3.03948C18.9123 2.99692 18.9775 2.95619 19.0447 2.91743C19.901 2.42302 20.8831 2.34953 21.7916 2.47699C22.7059 2.60527 23.6413 2.94825 24.5137 3.4093C26.243 4.32321 27.9339 5.81394 28.9005 7.48824C29.9104 9.23733 29.9677 10.9195 29.3122 12.3759C28.6898 13.7588 27.4969 14.7807 26.2947 15.4748C25.8912 15.7077 25.4563 15.9213 24.9994 16.0965C24.9966 15.2497 24.9049 14.3689 24.7361 13.4783C24.8388 13.4254 24.9417 13.3692 25.0447 13.3097C25.9948 12.7612 26.7045 12.0784 27.0324 11.3499C27.3272 10.6949 27.3825 9.85892 26.7355 8.73824C26.0453 7.5428 24.7381 6.35556 23.3456 5.61961C22.657 5.25572 22.0005 5.03079 21.4442 4.95274C21.1736 4.91477 20.9481 4.91401 20.7625 4.93759C20.1613 4.20922 19.5183 3.56633 18.8488 3.03948Z" fill="white"/>
<path d="M11.1505 3.03925C11.0872 2.99678 11.022 2.95612 10.955 2.91743C10.0986 2.42302 9.11656 2.34953 8.2081 2.47699C7.29374 2.60527 6.35834 2.94825 5.48595 3.4093C3.75666 4.32321 2.06579 5.81394 1.09913 7.48824C0.0892951 9.23733 0.031991 10.9195 0.687504 12.3759C1.3099 13.7588 2.50273 14.7807 3.70497 15.4748C4.10826 15.7076 4.54297 15.9211 4.99958 16.0963C5.00239 15.2494 5.09421 14.3686 5.26302 13.478C5.1605 13.4252 5.05776 13.3691 4.95497 13.3097C4.00489 12.7612 3.29514 12.0784 2.96725 11.3499C2.67247 10.6949 2.61717 9.85892 3.26419 8.73824C3.95438 7.5428 5.26151 6.35556 6.65408 5.61961C7.34263 5.25572 7.99913 5.03079 8.55546 4.95274C8.82581 4.91481 9.05112 4.91401 9.23664 4.93752C9.83785 4.20907 10.4809 3.56613 11.1505 3.03925Z" fill="white"/>
<path d="M14.1995 18.4333C14.5995 18.9667 15.3995 18.9667 15.7995 18.4333L16.7995 17.1C17.2939 16.4408 16.8236 15.5 15.9995 15.5H13.9995C13.1755 15.5 12.7051 16.4408 13.1995 17.1L14.1995 18.4333Z" fill="#F5F5F5"/>
<path d="M13 11C13 11.8284 12.3284 12.5 11.5 12.5C10.6716 12.5 9.99999 11.8284 9.99999 11C9.99999 10.1716 10.6716 9.5 11.5 9.5C12.3284 9.5 13 10.1716 13 11Z" fill="white"/>
<path d="M20 11C20 11.8284 19.3284 12.5 18.5 12.5C17.6716 12.5 17 11.8284 17 11C17 10.1716 17.6716 9.5 18.5 9.5C19.3284 9.5 20 10.1716 20 11Z" fill="white"/>
<path fill-rule="evenodd" clip-rule="evenodd" d="M15 0.25C13.4056 0.25 11.9021 0.91221 10.5916 1.893C9.27732 2.87655 8.08854 4.22923 7.0907 5.75104C5.10597 8.77797 3.74999 12.6715 3.74999 16.1364C3.74999 19.697 5.18846 22.1839 7.42586 23.7286C9.59226 25.2242 12.3777 25.75 15 25.75C17.6222 25.75 20.4077 25.2242 22.5741 23.7286C24.8115 22.1839 26.25 19.697 26.25 16.1364C26.25 12.6715 24.894 8.77797 22.9093 5.75104C21.9114 4.22923 20.7227 2.87655 19.4084 1.893C18.0978 0.91221 16.5943 0.25 15 0.25ZM6.24999 16.1364C6.24999 13.25 7.40873 9.8253 9.18135 7.12187C10.0622 5.7785 11.0627 4.66295 12.0895 3.89457C13.1199 3.12343 14.1091 2.75 15 2.75C15.8909 2.75 16.8801 3.12343 17.9105 3.89457C18.9372 4.66295 19.9378 5.7785 20.8186 7.12187C22.5912 9.8253 23.75 13.25 23.75 16.1364C23.75 18.927 22.6737 20.6219 21.1538 21.6712C19.7908 22.6122 17.9703 23.0996 16 23.22V19.567C16.2256 19.4368 16.4305 19.2589 16.5997 19.0334L17.5997 17.7C18.5886 16.3816 17.6478 14.5 15.9997 14.5H13.9997C12.3516 14.5 11.4109 16.3816 12.3997 17.7L13.3997 19.0334C13.569 19.2591 13.7742 19.4371 14 19.5673V23.22C12.0297 23.0996 10.2091 22.6122 8.8462 21.6712C7.32623 20.6219 6.24999 18.927 6.24999 16.1364ZM15.9997 16.5L14.9997 17.8334L13.9997 16.5H15.9997Z" fill="white"/>
</g>
</svg>
